<?xml version="1.0" standalone="no"?>
<!DOCTYPE svg PUBLIC "-//W3C//DTD SVG 20010904//EN"
 "http://www.w3.org/TR/2001/REC-SVG-20010904/DTD/svg10.dtd">
<svg version="1.0" xmlns="http://www.w3.org/2000/svg"
 width="920.000000pt" height="920.000000pt" viewBox="0 0 920.000000 920.000000"
 preserveAspectRatio="xMidYMid meet">
<metadata>
Created by potrace 1.16, written by Peter Selinger 2001-2019
</metadata>
<g transform="translate(0.000000,920.000000) scale(0.100000,-0.100000)"
fill="#000000" stroke="none">
<path d="M4260 9175 c-119 -31 -273 -106 -376 -183 -107 -81 -3648 -3626
-3696 -3702 -137 -213 -198 -435 -185 -680 11 -191 60 -353 159 -519 47 -80
169 -205 1852 -1889 990 -992 1831 -1825 1867 -1852 220 -164 544 -244 816
-200 168 27 359 106 483 199 85 64 3607 3586 3671 3671 93 124 172 315 199
483 44 272 -36 597 -200 816 -75 102 -3631 3649 -3709 3701 -96 64 -239 128
-347 156 -84 21 -118 24 -268 24 -148 -1 -184 -4 -266 -25z m452 -723 c57 -28
235 -204 1824 -1794 1977 -1979 1804 -1791 1812 -1964 5 -102 -12 -180 -53
-243 -27 -42 -3517 -3530 -3556 -3554 -55 -33 -138 -49 -234 -45 -78 3 -102 9
-161 37 -66 31 -147 111 -1817 1784 -2001 2005 -1812 1797 -1812 1997 0 196
-192 -15 1804 1983 966 967 1775 1770 1799 1784 68 40 127 53 234 49 85 -3
105 -7 160 -34z"/>
<path d="M3174 6394 c-66 -149 -71 -278 -18 -459 21 -75 47 -88 165 -83 49 1
89 0 89 -4 0 -3 -36 -18 -80 -33 -44 -15 -80 -30 -80 -35 0 -23 126 -117 239
-178 l72 -39 -74 -69 c-167 -155 -400 -309 -687 -453 -303 -151 -544 -247
-896 -356 -82 -25 -151 -48 -153 -51 -5 -5 2420 -2434 2429 -2434 3 0 13 28
22 63 86 328 401 714 705 864 81 40 139 46 189 20 16 -8 65 -43 109 -77 149
-115 205 -129 345 -85 89 29 166 64 211 97 21 16 59 24 151 35 153 17 212 34
274 76 126 87 283 370 291 527 l4 75 -72 75 c-138 144 -248 309 -359 535 -89
183 -136 298 -295 730 -95 257 -133 335 -197 397 -109 107 -344 239 -608 343
-80 31 -147 59 -150 62 -12 12 86 84 137 100 72 23 142 10 327 -57 234 -86
281 -94 506 -95 175 0 202 2 265 22 134 43 129 51 -56 98 -74 18 -157 42 -186
54 -90 35 -291 140 -402 208 -212 132 -333 173 -511 175 -89 1 -117 -3 -183
-26 -159 -54 -297 -140 -452 -282 l-108 -99 -66 71 c-155 167 -360 286 -563
328 -45 9 -126 16 -193 16 l-116 0 -25 -56z"/>
</g>
</svg>
